<?xml version="1.0" encoding="utf-8"?>
<!-- Generator: Adobe Illustrator 16.0.0, SVG Export Plug-In . SVG Version: 6.00 Build 0)  -->
<!DOCTYPE svg PUBLIC "-//W3C//DTD SVG 1.1//EN" "http://www.w3.org/Graphics/SVG/1.1/DTD/svg11.dtd">
<svg version="1.1" id="Layer_1" xmlns="http://www.w3.org/2000/svg" xmlns:xlink="http://www.w3.org/1999/xlink" x="0px" y="0px"
	 width="841.89px" height="595.28px" viewBox="0 0 841.89 595.28" enable-background="new 0 0 841.89 595.28" xml:space="preserve">
<path fill="#F99E24" d="M411.05,282.426c0,0,2.557-1.928,5.695-1.105c3.137,0.821,5.529,1.832,6.265,1.232
	c0.733-0.6,0.639,11.219,0.589,11.631c-0.048,0.41-13.755,0.221-13.755,0.221L411.05,282.426z"/>
<path fill="#FFFFFF" d="M255.776,285.573v-19.388h-4.896v19.388h-4.847v-19.388h-4.848v19.388h-4.848v-19.388
	c0-3.232,1.616-4.848,4.848-4.848h14.541c3.264,0,4.88,1.615,4.848,4.848v19.388H255.776z"/>
<path fill="#FFFFFF" d="M271.055,264.569h12.927c3.23,0,4.846,1.616,4.846,4.847v4.848c0,2.154-1.076,3.23-3.23,3.23h-14.542v3.232
	h12.927v-1.616h4.846v1.616c0,3.23-1.615,4.847-4.846,4.847h-12.927c-3.231,0-4.847-1.616-4.847-4.847v-11.311
	C266.208,266.186,267.823,264.569,271.055,264.569z M271.055,269.416v3.07h12.894v-3.07H271.055z"/>
<path fill="#FFFFFF" d="M299.388,285.573c-3.232,0-4.848-1.616-4.848-4.847v-11.311c0-3.23,1.615-4.847,4.848-4.847h12.926
	c3.23,0,4.846,1.616,4.846,4.847v3.393h-4.846v-3.393h-12.926v11.311h12.926v-3.232h4.846v3.232c0,3.23-1.615,4.847-4.846,4.847
	H299.388z"/>
<path fill="#FFFFFF" d="M340.647,285.573v-16.157h-12.926v16.157h-4.848v-24.235h4.848v3.231h12.926c3.23,0,4.846,1.616,4.846,4.847
	v16.157H340.647z"/>
<path fill="#FFFFFF" d="M368.833,285.573h-12.926c-3.23,0-4.846-1.616-4.846-4.847v-4.848c0-2.154,1.076-3.231,3.23-3.231h14.541
	v-3.231h-12.926v1.615h-4.846v-1.615c0-3.23,1.615-4.847,4.846-4.847h12.926c3.232,0,4.848,1.616,4.848,4.847v11.311
	C373.681,283.957,372.065,285.573,368.833,285.573z M368.833,280.727v-3.07H355.94v3.07H368.833z"/>
<path fill="#FFFFFF" d="M397.167,285.573v-16.157h-12.926v16.157h-4.848v-16.157c0-3.23,1.617-4.847,4.848-4.847h12.926
	c3.232,0,4.848,1.616,4.848,4.847v16.157H397.167z"/>
<path fill="#FFFFFF" d="M448.437,272.486c3.23,0,4.848,1.615,4.848,4.847v3.394c0,3.23-1.617,4.847-4.848,4.847h-12.926
	c-3.23,0-4.848-1.616-4.848-4.847v-1.616h4.848v1.616h12.926v-3.394h-12.926c-3.23,0-4.848-1.616-4.848-4.847v-3.07
	c0-3.23,1.617-4.847,4.848-4.847h12.926c3.23,0,4.848,1.616,4.848,4.847v2.101h-4.848v-2.101h-12.926v3.07H448.437z"/>
<path fill="#FFFFFF" d="M458.964,285.573v-24.235h4.848v3.393h11.309v4.848h-11.309v11.148h12.926v-4.848h4.846v4.848
	c0,3.23-1.615,4.847-4.846,4.847H458.964z"/>
<path fill="#FFFFFF" d="M505.038,275.879v-6.463h-12.926v16.157h-4.848v-16.157c0-3.23,1.615-4.847,4.848-4.847h12.926
	c3.23,0,4.848,1.616,4.848,4.847v6.463H505.038z"/>
<path fill="#FFCC67" d="M411.587,279.371c0,0,3.145-1.035,2.516-3.086c-0.633-2.049-1.557-5.746-1.59-7.494l-0.902,10.331"/>
<path fill="#FFFFFF" d="M520.364,264.569v12.925h12.926v-12.925h4.848v21.004c0,3.231-1.615,4.847-4.848,4.847h-12.926
	c-3.23,0-4.846-1.615-4.846-4.847v-1.616h4.846v1.616h12.926v-3.231h-12.926c-3.23,0-4.846-1.615-4.846-4.848v-12.925H520.364z"/>
<path fill="#FFCC67" d="M422.797,246.758c0,0-1.775,9.9-5.006,6.621c-3.232-3.278,2.721-9.039,4.811-13.879L422.797,246.758z"/>
<g>
	<g>
		<path fill="none" stroke="#FFFFFF" stroke-width="3" stroke-miterlimit="10" d="M421.758,258.313c-0.13,0-0.207,0.449-0.173,0.998
			l2.146,34.496c0.034,0.549-0.388,0.998-0.938,0.998h-11.766c-0.55,0-0.979-0.449-0.954-0.999l1.6-34.494
			c0.025-0.55-0.071-0.999-0.214-0.999s0.19,0,0.74,0h7.854c0.55,0,1.211,0,1.469,0S421.887,258.313,421.758,258.313z"/>
	</g>
</g>
<path fill="#F99E24" d="M420.685,294.805"/>
<path fill="#FEE600" d="M429.417,295.29"/>
<circle fill="#FFCC67" cx="419.822" cy="291.087" r="0.862"/>
<circle fill="#FFCC67" cx="413.748" cy="288.976" r="0.862"/>
<circle fill="#FFCC67" cx="416.91" cy="285.271" r="0.862"/>
</svg>
